<svg xmlns="http://www.w3.org/2000/svg" viewBox="0 0 240 234"><defs><style>.cls-1{fill:#000b1d;}.cls-2{fill:#fff;}</style></defs><title>Acrobat</title><g id="Layer_2" data-name="Layer 2"><g id="Layer_1-2" data-name="Layer 1"><g id="Layer_2-2" data-name="Layer 2"><g id="DC_EC_Logo_Surface" data-name="DC EC Logo Surface"><g id="Outline_no_shadow" data-name="Outline no shadow"><path class="cls-1" d="M42.5,0h155A42.46,42.46,0,0,1,240,42.5v149A42.46,42.46,0,0,1,197.5,234H42.5A42.46,42.46,0,0,1,0,191.5V42.5A42.46,42.46,0,0,1,42.5,0Z"/></g></g></g><g id="Layer_3" data-name="Layer 3"><g id="Layer_86" data-name="Layer 86"><path id="_64" data-name=" 64" class="cls-2" d="M193,135.5c-11.1-11.8-41.8-7-49-5.8a125,125,0,0,1-20.5-27,120.3,120.3,0,0,0,7-35.4c0-10.8-4.3-22.4-16.3-22.4a12.16,12.16,0,0,0-10.1,5.9c-5.1,8.8-3.1,27,5.1,45.4-4.8,13.5-11.7,33-20.8,48.8-12.3,4.9-38.4,16.9-40.9,30.2a11.23,11.23,0,0,0,3.6,10.6,15.22,15.22,0,0,0,10.6,3.8c15.7,0,31.4-21.8,42-40.5a266.7,266.7,0,0,1,37.4-9.8C157.7,153.8,172.5,156,180,156c10.2,0,14-4.4,15.4-8.1A12.49,12.49,0,0,0,193,135.5Zm-10.8,7.6c-.5,2.9-4.2,5.8-11.1,4.3a55.54,55.54,0,0,1-21.8-11c5.4-.9,18-2.1,26.9-.4C179.4,136.6,183.1,138.4,182.2,143.1ZM110.6,54.6a4,4,0,0,1,3.5-2.2c3.8,0,4.6,4.6,4.6,8.4a116.78,116.78,0,0,1-5,26.7C107.3,70.5,108.2,58.7,110.6,54.6Zm-.9,83.1a251.19,251.19,0,0,0,9.9-23.8,126,126,0,0,0,13.6,17.8A225,225,0,0,0,109.7,137.7ZM84.6,154.9c-10.1,16.2-20,26.4-25.8,26.4a4.11,4.11,0,0,1-2.6-.9,3.73,3.73,0,0,1-1.3-3.7C56,170.9,67.5,162.5,84.6,154.9Z"/></g></g></g></g></svg>