<?xml version="1.0" encoding="utf-8"?>
<!-- Generator: Adobe Illustrator 26.0.1, SVG Export Plug-In . SVG Version: 6.00 Build 0)  -->
<svg version="1.1" id="Layer_1" xmlns="http://www.w3.org/2000/svg" xmlns:xlink="http://www.w3.org/1999/xlink" x="0px" y="0px"
	 viewBox="0 0 32 32" style="enable-background:new 0 0 32 32;" xml:space="preserve">
<style type="text/css">
	.st0{display:none;fill:#FFFFFF;}
	.st1{fill:#FFFFFF;}
</style>
<g>
	<g>
		<path class="st0" d="M17.4,11.7h-2.9c-0.7,0-1.2-0.5-1.2-1.2V7.6c0-0.7,0.5-1.2,1.2-1.2h2.9c0.7,0,1.2,0.5,1.2,1.2v2.9
			C18.6,11.1,18.1,11.7,17.4,11.7z"/>
		<path class="st1" d="M10.5,10.9H8.1c-0.6,0-1-0.5-1-1V7.4c0-0.6,0.5-1,1-1h2.5c0.6,0,1,0.5,1,1v2.5C11.6,10.4,11.1,10.9,10.5,10.9
			z"/>
		<path class="st1" d="M17.5,10.9H15c-0.6,0-1-0.5-1-1V7.4c0-0.6,0.5-1,1-1h2.5c0.6,0,1,0.5,1,1v2.5C18.6,10.4,18.1,10.9,17.5,10.9z
			"/>
		<path class="st1" d="M24.1,10.9h-2.5c-0.6,0-1-0.5-1-1V7.4c0-0.6,0.5-1,1-1h2.5c0.6,0,1,0.5,1,1v2.5
			C25.1,10.4,24.7,10.9,24.1,10.9z"/>
		<path class="st1" d="M10.5,10.9H8.1c-0.6,0-1-0.5-1-1V7.4c0-0.6,0.5-1,1-1h2.5c0.6,0,1,0.5,1,1v2.5C11.6,10.4,11.1,10.9,10.5,10.9
			z"/>
		<path class="st0" d="M23.8,11.7h-2.9c-0.7,0-1.2-0.5-1.2-1.2V7.6c0-0.7,0.5-1.2,1.2-1.2h2.9c0.7,0,1.2,0.5,1.2,1.2v2.9
			C25,11.1,24.5,11.7,23.8,11.7z"/>
		<path class="st0" d="M17.4,24.5h-2.9c-0.7,0-1.2-0.5-1.2-1.2v-2.9c0-0.7,0.5-1.2,1.2-1.2h2.9c0.7,0,1.2,0.5,1.2,1.2v2.9
			C18.6,23.9,18.1,24.5,17.4,24.5z"/>
		<path class="st0" d="M11,24.5H8.1c-0.7,0-1.2-0.5-1.2-1.2v-2.9c0-0.7,0.5-1.2,1.2-1.2H11c0.7,0,1.2,0.5,1.2,1.2v2.9
			C12.2,23.9,11.7,24.5,11,24.5z"/>
		<path class="st0" d="M23.8,24.5h-2.9c-0.7,0-1.2-0.5-1.2-1.2v-2.9c0-0.7,0.5-1.2,1.2-1.2h2.9c0.7,0,1.2,0.5,1.2,1.2v2.9
			C25,23.9,24.5,24.5,23.8,24.5z"/>
		<path class="st0" d="M17.4,18.1h-2.9c-0.7,0-1.2-0.5-1.2-1.2V14c0-0.7,0.5-1.2,1.2-1.2h2.9c0.7,0,1.2,0.5,1.2,1.2v2.9
			C18.6,17.5,18.1,18.1,17.4,18.1z"/>
		<path class="st0" d="M11,18.1H8.1c-0.7,0-1.2-0.5-1.2-1.2V14c0-0.7,0.5-1.2,1.2-1.2H11c0.7,0,1.2,0.5,1.2,1.2v2.9
			C12.2,17.5,11.7,18.1,11,18.1z"/>
		<path class="st0" d="M23.8,18.1h-2.9c-0.7,0-1.2-0.5-1.2-1.2V14c0-0.7,0.5-1.2,1.2-1.2h2.9c0.7,0,1.2,0.5,1.2,1.2v2.9
			C25,17.5,24.5,18.1,23.8,18.1z"/>
	</g>
	<g>
		<path class="st0" d="M17.4,19.1h-2.9c-0.7,0-1.2-0.5-1.2-1.2V15c0-0.7,0.5-1.2,1.2-1.2h2.9c0.7,0,1.2,0.5,1.2,1.2v2.9
			C18.5,18.6,18,19.1,17.4,19.1z"/>
		<path class="st1" d="M10.5,18.4H8c-0.6,0-1-0.5-1-1v-2.5c0-0.6,0.5-1,1-1h2.5c0.6,0,1,0.5,1,1v2.5C11.5,17.9,11,18.4,10.5,18.4z"
			/>
		<path class="st1" d="M17.5,18.4H15c-0.6,0-1-0.5-1-1v-2.5c0-0.6,0.5-1,1-1h2.5c0.6,0,1,0.5,1,1v2.5C18.5,17.9,18,18.4,17.5,18.4z"
			/>
		<path class="st1" d="M24.1,18.4h-2.5c-0.6,0-1-0.5-1-1v-2.5c0-0.6,0.5-1,1-1h2.5c0.6,0,1,0.5,1,1v2.5
			C25.1,17.9,24.6,18.4,24.1,18.4z"/>
		<path class="st1" d="M10.5,18.4H8c-0.6,0-1-0.5-1-1v-2.5c0-0.6,0.5-1,1-1h2.5c0.6,0,1,0.5,1,1v2.5C11.5,17.9,11,18.4,10.5,18.4z"
			/>
		<path class="st0" d="M23.8,19.1h-2.9c-0.7,0-1.2-0.5-1.2-1.2V15c0-0.7,0.5-1.2,1.2-1.2h2.9c0.7,0,1.2,0.5,1.2,1.2v2.9
			C25,18.6,24.4,19.1,23.8,19.1z"/>
		<path class="st0" d="M17.4,31.9h-2.9c-0.7,0-1.2-0.5-1.2-1.2v-2.9c0-0.7,0.5-1.2,1.2-1.2h2.9c0.7,0,1.2,0.5,1.2,1.2v2.9
			C18.5,31.4,18,31.9,17.4,31.9z"/>
		<path class="st0" d="M10.9,31.9H8c-0.7,0-1.2-0.5-1.2-1.2v-2.9c0-0.7,0.5-1.2,1.2-1.2h2.9c0.7,0,1.2,0.5,1.2,1.2v2.9
			C12.1,31.4,11.6,31.9,10.9,31.9z"/>
		<path class="st0" d="M23.8,31.9h-2.9c-0.7,0-1.2-0.5-1.2-1.2v-2.9c0-0.7,0.5-1.2,1.2-1.2h2.9c0.7,0,1.2,0.5,1.2,1.2v2.9
			C25,31.4,24.4,31.9,23.8,31.9z"/>
		<path class="st0" d="M17.4,25.5h-2.9c-0.7,0-1.2-0.5-1.2-1.2v-2.9c0-0.7,0.5-1.2,1.2-1.2h2.9c0.7,0,1.2,0.5,1.2,1.2v2.9
			C18.5,25,18,25.5,17.4,25.5z"/>
		<path class="st0" d="M10.9,25.5H8c-0.7,0-1.2-0.5-1.2-1.2v-2.9c0-0.7,0.5-1.2,1.2-1.2h2.9c0.7,0,1.2,0.5,1.2,1.2v2.9
			C12.1,25,11.6,25.5,10.9,25.5z"/>
		<path class="st0" d="M23.8,25.5h-2.9c-0.7,0-1.2-0.5-1.2-1.2v-2.9c0-0.7,0.5-1.2,1.2-1.2h2.9c0.7,0,1.2,0.5,1.2,1.2v2.9
			C25,25,24.4,25.5,23.8,25.5z"/>
	</g>
	<g>
		<path class="st0" d="M17.4,26.3h-2.9c-0.7,0-1.2-0.5-1.2-1.2v-2.9c0-0.7,0.5-1.2,1.2-1.2h2.9c0.7,0,1.2,0.5,1.2,1.2v2.9
			C18.5,25.8,18,26.3,17.4,26.3z"/>
		<path class="st1" d="M10.5,25.6H8c-0.6,0-1-0.5-1-1v-2.5c0-0.6,0.5-1,1-1h2.5c0.6,0,1,0.5,1,1v2.5C11.5,25.1,11,25.6,10.5,25.6z"
			/>
		<path class="st1" d="M17.5,25.6H15c-0.6,0-1-0.5-1-1v-2.5c0-0.6,0.5-1,1-1h2.5c0.6,0,1,0.5,1,1v2.5C18.5,25.1,18,25.6,17.5,25.6z"
			/>
		<path class="st1" d="M24.1,25.6h-2.5c-0.6,0-1-0.5-1-1v-2.5c0-0.6,0.5-1,1-1h2.5c0.6,0,1,0.5,1,1v2.5
			C25.1,25.1,24.6,25.6,24.1,25.6z"/>
		<path class="st1" d="M10.5,25.6H8c-0.6,0-1-0.5-1-1v-2.5c0-0.6,0.5-1,1-1h2.5c0.6,0,1,0.5,1,1v2.5C11.5,25.1,11,25.6,10.5,25.6z"
			/>
		<path class="st0" d="M23.8,26.3h-2.9c-0.7,0-1.2-0.5-1.2-1.2v-2.9c0-0.7,0.5-1.2,1.2-1.2h2.9c0.7,0,1.2,0.5,1.2,1.2v2.9
			C25,25.8,24.4,26.3,23.8,26.3z"/>
		<path class="st0" d="M17.4,39.2h-2.9c-0.7,0-1.2-0.5-1.2-1.2v-2.9c0-0.7,0.5-1.2,1.2-1.2h2.9c0.7,0,1.2,0.5,1.2,1.2V38
			C18.5,38.6,18,39.2,17.4,39.2z"/>
		<path class="st0" d="M10.9,39.2H8c-0.7,0-1.2-0.5-1.2-1.2v-2.9c0-0.7,0.5-1.2,1.2-1.2h2.9c0.7,0,1.2,0.5,1.2,1.2V38
			C12.1,38.6,11.6,39.2,10.9,39.2z"/>
		<path class="st0" d="M23.8,39.2h-2.9c-0.7,0-1.2-0.5-1.2-1.2v-2.9c0-0.7,0.5-1.2,1.2-1.2h2.9c0.7,0,1.2,0.5,1.2,1.2V38
			C25,38.6,24.4,39.2,23.8,39.2z"/>
		<path class="st0" d="M17.4,32.8h-2.9c-0.7,0-1.2-0.5-1.2-1.2v-2.9c0-0.7,0.5-1.2,1.2-1.2h2.9c0.7,0,1.2,0.5,1.2,1.2v2.9
			C18.5,32.2,18,32.8,17.4,32.8z"/>
		<path class="st0" d="M10.9,32.8H8c-0.7,0-1.2-0.5-1.2-1.2v-2.9c0-0.7,0.5-1.2,1.2-1.2h2.9c0.7,0,1.2,0.5,1.2,1.2v2.9
			C12.1,32.2,11.6,32.8,10.9,32.8z"/>
		<path class="st0" d="M23.8,32.8h-2.9c-0.7,0-1.2-0.5-1.2-1.2v-2.9c0-0.7,0.5-1.2,1.2-1.2h2.9c0.7,0,1.2,0.5,1.2,1.2v2.9
			C25,32.2,24.4,32.8,23.8,32.8z"/>
	</g>
</g>
</svg>
