<svg id="Layer_1" data-name="Layer 1" xmlns="http://www.w3.org/2000/svg" viewBox="0 0 256 256"><defs><style>.cls-1{fill:#868e95;}.cls-1,.cls-10,.cls-11,.cls-12,.cls-13,.cls-14,.cls-15,.cls-16,.cls-17,.cls-18,.cls-19,.cls-2,.cls-20,.cls-21,.cls-22,.cls-23,.cls-24,.cls-25,.cls-26,.cls-27,.cls-3,.cls-4,.cls-5,.cls-6,.cls-7,.cls-8,.cls-9{fill-rule:evenodd;}.cls-2{fill:#7f8890;opacity:1;}.cls-2,.cls-24{isolation:isolate;}.cls-3{fill:#4de2fd;}.cls-4{fill:#49ddfb;}.cls-5{fill:#45d7f9;}.cls-6{fill:#41d1f7;}.cls-7{fill:#3ccbf4;}.cls-8{fill:#778089;}.cls-9{fill:#37c4f2;}.cls-10{fill:#7c858d;}.cls-11{fill:#32bdef;}.cls-12{fill:#2cb5ec;}.cls-13{fill:#808890;}.cls-14{fill:#5e646b;}.cls-15{fill:#697179;}.cls-16{fill:#717981;}.cls-17{fill:#c9d1d8;}.cls-18{fill:#747e87;}.cls-19{fill:#7a838c;}.cls-20{fill:#124787;}.cls-21{fill:#6d7982;}.cls-22{fill:#6f7a84;}.cls-23{fill:#13427f;}.cls-24{fill:#6d7882;opacity:1;}.cls-25{fill:#153d78;}.cls-26{fill:#68747e;}.cls-27{fill:#65717c;}</style></defs><path class="cls-1" d="M49.56,16.65h99.59q-10.1,6.57-20.78,12.56l-13.86.87a16.22,16.22,0,0,0-4.33,2.59q-15.39.7-30.31,2.17a124.67,124.67,0,0,0-14.72.43,4.37,4.37,0,0,0-2.6,3.9A78.09,78.09,0,0,0,57.79,47Q57,55.2,56.06,63.42a3.92,3.92,0,0,0-3,3.46,8.11,8.11,0,0,1,.44,5.2,47.56,47.56,0,0,1-9.1,5.19q-.21-27.7.44-55.42A13.73,13.73,0,0,1,49.56,16.65Z"/><path class="cls-2" d="M149.15,16.65h56.29a13.73,13.73,0,0,1,4.76,5.2q.66,16,.44,32l-6.93,3.46a36.76,36.76,0,0,1-1.3-7.79,3.21,3.21,0,0,1-1.3.87A27.65,27.65,0,0,0,193.32,37a4.34,4.34,0,0,0-2.6-.43,6.11,6.11,0,0,0-2.6-1.73H79.87q14.92-1.46,30.31-2.17a16.22,16.22,0,0,1,4.33-2.59l13.86-.87Q139.05,23.23,149.15,16.65Z"/><path class="cls-3" d="M79.87,34.84h24.25Q83.71,47.44,62.55,59.09V39.17a4.37,4.37,0,0,1,2.6-3.9A124.67,124.67,0,0,1,79.87,34.84Z"/><path class="cls-4" d="M104.12,34.84h26Q98.27,53.13,66.88,72.08H65.15A9.92,9.92,0,0,1,63,69.48a63.31,63.31,0,0,1-.43-10.39Q83.7,47.44,104.12,34.84Z"/><path class="cls-5" d="M130.1,34.84h20.78q-31.4,18.94-63.22,37.24H66.88Q98.28,53.14,130.1,34.84Z"/><path class="cls-6" d="M150.88,34.84h19.05q-31.4,18.94-63.21,37.24H87.66Q119.49,53.78,150.88,34.84Z"/><path class="cls-7" d="M169.93,34.84h18.19a4.65,4.65,0,0,1-2.6,3q-29.73,16.82-58.89,34.21H106.72Q138.54,53.78,169.93,34.84Z"/><path class="cls-8" d="M190.72,36.57a4.34,4.34,0,0,1,2.6.43,27.65,27.65,0,0,1,7.79,13.43,3.21,3.21,0,0,0,1.3-.87,36.76,36.76,0,0,0,1.3,7.79l6.93-3.46v61.49a126.66,126.66,0,0,1-17.32,9.52q.21-16-.44-32a4,4,0,0,0-2.16-2.16,211.37,211.37,0,0,0-32.91.43,3.85,3.85,0,0,0-1.3,1.73q-.64,9.51-.43,19a75.6,75.6,0,0,0-9.53,5.2,210.16,210.16,0,0,0-.86-26l6.06-3.9-13-.86,3.46-1.74q-36.9-1.89-73.61-5.19a13.67,13.67,0,0,1-7.36-10.83,86.42,86.42,0,0,1,0-17.32,7.63,7.63,0,0,1,1.3-3.46V59.09A63.31,63.31,0,0,0,63,69.48a9.92,9.92,0,0,0,2.17,2.6,1,1,0,0,0-.87.86,13,13,0,0,0,2.6,3,43.85,43.85,0,0,0,9.53,1.74q55,1,110,2.59a10.92,10.92,0,0,0,9.09-7.36,104.5,104.5,0,0,0,0-19,12.9,12.9,0,0,0-2.16-7.79,28.24,28.24,0,0,0-.44-6.93,2,2,0,0,0-1.3-.87C191.3,37.72,191,37.15,190.72,36.57Z"/><path class="cls-9" d="M188.12,34.84a6.11,6.11,0,0,1,2.6,1.73c.29.58.58,1.15.86,1.73v6.06Q167.12,57.25,144,72.08H126.63q29.16-17.4,58.89-34.21A4.65,4.65,0,0,0,188.12,34.84Z"/><path class="cls-10" d="M62.55,41.77v6.06a7.63,7.63,0,0,0-1.3,3.46,86.42,86.42,0,0,0,0,17.32,13.67,13.67,0,0,0,7.36,10.83q36.72,3.28,73.61,5.19l-3.46,1.74,13,.86-6.06,3.9a175.86,175.86,0,0,0-34.64,0,3.78,3.78,0,0,0-1.3,1.73q-.66,9.51-.44,19a76.41,76.41,0,0,1-9.52,5.2Q100,105,99.36,92.86a4,4,0,0,0-2.17-2.16,21.64,21.64,0,0,0-6.06-.44,8.8,8.8,0,0,1,4.33-3l-17.32-.86a6.32,6.32,0,0,1,2.6-1.74,24.87,24.87,0,0,1-19.49-6.49A52,52,0,0,1,60,47,17.8,17.8,0,0,1,62.55,41.77Z"/><path class="cls-11" d="M191.58,44.36V58.22A157.62,157.62,0,0,0,168.2,72.08H144Q167.13,57.25,191.58,44.36Z"/><path class="cls-12" d="M191.58,58.22a73,73,0,0,1-.43,11.26,3.85,3.85,0,0,1-1.3,1.73,142.07,142.07,0,0,1-21.65.87A157.62,157.62,0,0,1,191.58,58.22Z"/><path class="cls-13" d="M62.55,39.17v2.6A17.8,17.8,0,0,0,60,47a52,52,0,0,0,1.3,31.18,24.87,24.87,0,0,0,19.49,6.49,6.32,6.32,0,0,0-2.6,1.74l17.32.86a8.8,8.8,0,0,0-4.33,3,214.55,214.55,0,0,0-26.85.87A3.85,3.85,0,0,0,63,92.86a112.49,112.49,0,0,0-.43,13.86q-9.3,4.43-18.19,9.52v-39a47.56,47.56,0,0,0,9.1-5.19,8.11,8.11,0,0,0-.44-5.2,3.92,3.92,0,0,1,3-3.46Q57,55.2,57.79,47A78.09,78.09,0,0,1,62.55,39.17Z"/><path class="cls-14" d="M191.58,40a149.3,149.3,0,0,1,0,32.05,3.83,3.83,0,0,0-1.73,1.3q-55.42.86-110.85,0a43.21,43.21,0,0,1-8.66-1.3H168.2a142.07,142.07,0,0,0,21.65-.87,3.85,3.85,0,0,0,1.3-1.73,73,73,0,0,0,.43-11.26V40Z"/><path class="cls-15" d="M191.58,38.3a2,2,0,0,1,1.3.87,28.24,28.24,0,0,1,.44,6.93q.21,13.42-.44,26.84a12.16,12.16,0,0,1-5.63,3.9Q131,76.75,74.67,76a21.31,21.31,0,0,1-9.52-3.89h5.19A43.21,43.21,0,0,0,79,73.38q55.43.86,110.85,0a3.83,3.83,0,0,1,1.73-1.3,149.3,149.3,0,0,0,0-32Z"/><path class="cls-16" d="M193.32,46.1a12.9,12.9,0,0,1,2.16,7.79,104.5,104.5,0,0,1,0,19,10.92,10.92,0,0,1-9.09,7.36q-55-1.55-110-2.59A43.85,43.85,0,0,1,66.88,76a13,13,0,0,1-2.6-3,1,1,0,0,1,.87-.86A21.31,21.31,0,0,0,74.67,76q56.3.78,112.58.87a12.16,12.16,0,0,0,5.63-3.9Q193.54,59.53,193.32,46.1Z"/><path class="cls-17" d="M91.13,90.26a21.64,21.64,0,0,1,6.06.44,4,4,0,0,1,2.17,2.16q.65,12.12.43,24.25a35.65,35.65,0,0,1-.43,7.79,4,4,0,0,1-2.17,2.17,300.38,300.38,0,0,1-32,0A4,4,0,0,1,63,124.9q-.65-9.08-.43-18.18A112.49,112.49,0,0,1,63,92.86a3.85,3.85,0,0,1,1.3-1.73A214.55,214.55,0,0,1,91.13,90.26Z"/><path class="cls-17" d="M145.69,91.13a210.16,210.16,0,0,1,.86,26,35.65,35.65,0,0,1-.43,7.79,3.85,3.85,0,0,1-1.3,1.73,91,91,0,0,1-17.32.87,82.86,82.86,0,0,1-16.45-.87,3.78,3.78,0,0,1-1.3-1.73,97.14,97.14,0,0,1-.44-13q-.21-9.54.44-19a3.78,3.78,0,0,1,1.3-1.73A175.86,175.86,0,0,1,145.69,91.13Z"/><path class="cls-17" d="M193.32,124.9a5.73,5.73,0,0,1-4.33,2.6q-15.17.21-30.31-.43a4,4,0,0,1-2.17-2.17,97.13,97.13,0,0,1-.43-13q-.22-9.54.43-19a3.85,3.85,0,0,1,1.3-1.73,211.37,211.37,0,0,1,32.91-.43,4,4,0,0,1,2.16,2.16Q193.54,108.88,193.32,124.9Z"/><path class="cls-18" d="M156.08,111.91a97.13,97.13,0,0,0,.43,13,4,4,0,0,0,2.17,2.17q15.15.65,30.31.43-7.59,4.44-14.73,9.53a82.9,82.9,0,0,0-16.45.86,3.9,3.9,0,0,0-1.3,1.73,35.74,35.74,0,0,0-.43,7.8,72,72,0,0,1-9.53,4.33,84.78,84.78,0,0,0-.43-12.13,4,4,0,0,0-2.17-2.16q-15.57-.65-31.17-.43,7.57-4.44,14.72-9.53a91,91,0,0,0,17.32-.87,3.85,3.85,0,0,0,1.3-1.73,35.65,35.65,0,0,0,.43-7.79A75.6,75.6,0,0,1,156.08,111.91Z"/><path class="cls-19" d="M62.55,106.72q-.21,9.09.43,18.18a4,4,0,0,0,2.17,2.17,300.38,300.38,0,0,0,32,0,4,4,0,0,0,2.17-2.17,35.65,35.65,0,0,0,.43-7.79,76.41,76.41,0,0,0,9.52-5.2,97.14,97.14,0,0,0,.44,13,3.78,3.78,0,0,0,1.3,1.73,82.86,82.86,0,0,0,16.45.87q-7.14,5.08-14.72,9.53a7.91,7.91,0,0,0-3.47,2.59.77.77,0,0,0-.43-.86A47,47,0,0,1,99.79,144a6.12,6.12,0,0,0-2.6-6.49,212.61,212.61,0,0,0-32.91.43,3.9,3.9,0,0,0-1.3,1.73q-.65,13-.43,26-8.88,5.53-18.19,10.4V116.24Q53.26,111.16,62.55,106.72Z"/><path class="cls-17" d="M99.79,144q.21,13.88-.43,27.72a3.9,3.9,0,0,1-1.3,1.73,212.61,212.61,0,0,1-32.91.43A4,4,0,0,1,63,171.67a21.68,21.68,0,0,1-.43-6.07q-.21-13,.43-26a3.9,3.9,0,0,1,1.3-1.73,212.61,212.61,0,0,1,32.91-.43A6.12,6.12,0,0,1,99.79,144Z"/><path class="cls-17" d="M112.78,137q15.59-.22,31.17.43a4,4,0,0,1,2.17,2.16,84.78,84.78,0,0,1,.43,12.13q.22,10-.43,19.92a3.9,3.9,0,0,1-1.3,1.73,175.86,175.86,0,0,1-34.64,0q-1.25-16.83-.87-33.78A7.91,7.91,0,0,1,112.78,137Z"/><path class="cls-20" d="M174.26,137a155.84,155.84,0,0,1,16.46.43,3.85,3.85,0,0,1,1.73,1.3,230.55,230.55,0,0,1,.87,27.71q-18.4,11.16-37.24,21.65v-40.7a35.74,35.74,0,0,1,.43-7.8,3.9,3.9,0,0,1,1.3-1.73A82.9,82.9,0,0,1,174.26,137Z"/><path class="cls-18" d="M109.31,139.62q-.37,16.95.87,33.78L92.86,183.79a243.05,243.05,0,0,0-28.58.87,3.85,3.85,0,0,0-1.3,1.73,126.85,126.85,0,0,0-.43,14.72Q53.25,206,44.36,211.5V176q9.31-4.87,18.19-10.4a21.68,21.68,0,0,0,.43,6.07,4,4,0,0,0,2.17,2.16,212.61,212.61,0,0,0,32.91-.43,3.9,3.9,0,0,0,1.3-1.73q.65-13.86.43-27.72a47,47,0,0,0,9.09-5.19A.77.77,0,0,1,109.31,139.62Z"/><path class="cls-21" d="M210.64,115.38v56.29l-17.32,9.52V166.47a230.55,230.55,0,0,0-.87-27.71,3.85,3.85,0,0,0-1.73-1.3,155.84,155.84,0,0,0-16.46-.43q7.14-5.1,14.73-9.53a5.73,5.73,0,0,0,4.33-2.6A126.66,126.66,0,0,0,210.64,115.38Z"/><path class="cls-22" d="M156.08,147.42v52.82a75.25,75.25,0,0,1-9.53,5.2q.22-9.54-.43-19.05a4,4,0,0,0-2.17-2.17,300.38,300.38,0,0,0-32,0,4,4,0,0,0-2.16,2.17,84.59,84.59,0,0,0-.44,12.12,75.47,75.47,0,0,0-9.52,5.2q.21-8.67-.43-17.32a6.13,6.13,0,0,0-6.5-2.6l17.32-10.39a175.86,175.86,0,0,0,34.64,0,3.9,3.9,0,0,0,1.3-1.73q.65-10,.43-19.92A72,72,0,0,0,156.08,147.42Z"/><path class="cls-23" d="M193.32,166.47v23.38q-18.45,10.74-37.24,20.79V188.12Q174.9,177.62,193.32,166.47Z"/><path class="cls-17" d="M92.86,183.79a6.13,6.13,0,0,1,6.5,2.6q.65,8.64.43,17.32a126.92,126.92,0,0,1-.43,14.72,4,4,0,0,1-2.17,2.16,295.21,295.21,0,0,1-32,0A4,4,0,0,1,63,218.43q-.65-8.66-.43-17.32A126.85,126.85,0,0,1,63,186.39a3.85,3.85,0,0,1,1.3-1.73A243.05,243.05,0,0,1,92.86,183.79Z"/><path class="cls-17" d="M146.55,205.44a97.13,97.13,0,0,1-.43,13,3.85,3.85,0,0,1-1.3,1.73,189.36,189.36,0,0,1-25.11.87,35.11,35.11,0,0,1-7.8-.44,4,4,0,0,1-2.16-2.16q-.66-9.94-.44-19.92a84.59,84.59,0,0,1,.44-12.12,4,4,0,0,1,2.16-2.17,300.38,300.38,0,0,1,32,0,4,4,0,0,1,2.17,2.17Q146.77,195.9,146.55,205.44Z"/><path class="cls-24" d="M109.31,198.51q-.21,10,.44,19.92a4,4,0,0,0,2.16,2.16,35.11,35.11,0,0,0,7.8.44q-14.29,8.66-28.58,17.32H49.56a13.73,13.73,0,0,1-4.76-5.2q-.66-10.82-.44-21.65,8.89-5.52,18.19-10.39-.21,8.67.43,17.32a4,4,0,0,0,2.17,2.16,295.21,295.21,0,0,0,32,0,4,4,0,0,0,2.17-2.16,126.92,126.92,0,0,0,.43-14.72A75.47,75.47,0,0,1,109.31,198.51Z"/><path class="cls-25" d="M193.32,189.85q.21,14.29-.44,28.58a9.7,9.7,0,0,1-2.16,2.6q-16,.21-32-.44a4,4,0,0,1-2.17-2.16,35.65,35.65,0,0,1-.43-7.79Q174.88,200.59,193.32,189.85Z"/><path class="cls-26" d="M156.08,200.24v10.4a35.65,35.65,0,0,0,.43,7.79,4,4,0,0,0,2.17,2.16q16,.66,32,.44-13.23,8.41-27.71,17.32H91.13q14.28-8.67,28.58-17.32a189.36,189.36,0,0,0,25.11-.87,3.85,3.85,0,0,0,1.3-1.73,97.13,97.13,0,0,0,.43-13A75.25,75.25,0,0,0,156.08,200.24Z"/><path class="cls-27" d="M210.64,171.67q.21,30.74-.44,61.48a13.73,13.73,0,0,1-4.76,5.2H163q14.48-8.91,27.71-17.32a9.7,9.7,0,0,0,2.16-2.6q.66-14.28.44-28.58v-8.66Z"/></svg>