<svg id="Layer_1" data-name="Layer 1" xmlns="http://www.w3.org/2000/svg" viewBox="0 0 96 96"><defs><style>.cls-1{fill:#0b7395;}.cls-1,.cls-10,.cls-11,.cls-12,.cls-13,.cls-14,.cls-2,.cls-3,.cls-4,.cls-5,.cls-6,.cls-7,.cls-8,.cls-9{fill-rule:evenodd;}.cls-1,.cls-14,.cls-2,.cls-3{isolation:isolate;}.cls-1,.cls-2,.cls-3{opacity:0.95;}.cls-2{fill:#0a7395;}.cls-3{fill:#0a7394;}.cls-4{fill:#69c9e6;}.cls-5{fill:#73d1ec;}.cls-6{fill:#5bc0de;}.cls-7{fill:#057093;}.cls-8{fill:#4cb5d4;}.cls-9{fill:#64c6e3;}.cls-10{fill:#56bcda;}.cls-11{fill:#d8d8d7;}.cls-12{fill:#f1f0f0;}.cls-13{fill:#804821;}.cls-14{fill:#ac5f2a;opacity:0.99;}</style></defs><path class="cls-1" d="M30.29,13q1.46,7.41-5.26,4.78A12.25,12.25,0,0,1,24.56,13V9.22h5.73Z"/><path class="cls-1" d="M43.68,13a12.45,12.45,0,0,1-.48,4.78,2.74,2.74,0,0,1-2.39,1,2.74,2.74,0,0,1-2.39-1A12.45,12.45,0,0,1,37.94,13V9.22h5.74Z"/><path class="cls-2" d="M57.06,13q1.44,7.41-5.26,4.78A12.45,12.45,0,0,1,51.32,13V9.22h5.74Z"/><path class="cls-3" d="M70.44,13Q72,19.4,65.66,18.78a11.53,11.53,0,0,1-1-5.74V9.22h5.73Z"/><path class="cls-4" d="M43.68,13h7.64a12.45,12.45,0,0,0,.48,4.78q6.71,2.63,5.26-4.78h7.65a11.53,11.53,0,0,0,1,5.74A134.12,134.12,0,0,1,52.28,32.16H27.42A131.11,131.11,0,0,1,40.81,18.78a2.74,2.74,0,0,0,2.39-1A12.45,12.45,0,0,0,43.68,13Z"/><path class="cls-5" d="M24.56,13A12.25,12.25,0,0,0,25,17.82q6.7,2.63,5.26-4.78h7.65a12.45,12.45,0,0,0,.48,4.78,2.74,2.74,0,0,0,2.39,1A131.11,131.11,0,0,0,27.42,32.16a.85.85,0,0,0-1,1l-7.65,6.69Q18.58,26.89,19.3,14A8.65,8.65,0,0,1,24.56,13Z"/><path class="cls-6" d="M70.44,13a8.65,8.65,0,0,1,5.26,1q.72,15.29.48,30.59Q70.41,49.88,64.71,55.1H40.81l4.78-5.73H68.53V43.63H35.07l5.74-5.73H68.53V32.16H52.28A134.12,134.12,0,0,0,65.66,18.78Q72,19.41,70.44,13Z"/><path class="cls-7" d="M27.42,32.16H68.53V37.9H26.47V33.12A.85.85,0,0,1,27.42,32.16Z"/><path class="cls-7" d="M35.07,43.63H68.53v5.74H26.47V43.63Z"/><path class="cls-7" d="M40.81,55.1H68.53v5.74H26.47V55.1Z"/><path class="cls-8" d="M76.18,44.59V70.4a4.11,4.11,0,0,0-1.91,1.43q-13.86.72-27.73.48A97.92,97.92,0,0,0,58,60.84H68.53V55.1H64.71Q70.41,49.9,76.18,44.59Z"/><path class="cls-9" d="M26.47,33.12V37.9H40.81l-5.74,5.73h-8.6v5.74H45.59L40.81,55.1H26.47v5.74h6.69L22.64,72.31a6.68,6.68,0,0,1-3.82-1.91V39.81Z"/><path class="cls-10" d="M33.16,60.84H58A97.92,97.92,0,0,1,46.54,72.31H22.64Z"/><path class="cls-11" d="M18.82,70.4a6.68,6.68,0,0,0,3.82,1.91h23.9q13.88.24,27.73-.48a4.11,4.11,0,0,1,1.91-1.43v5.73h-1A196.09,196.09,0,0,0,47.5,74.22a196.09,196.09,0,0,0-27.72,1.91h-1Z"/><path class="cls-12" d="M75.22,76.13a2.13,2.13,0,0,1-1,1.44q-26.77,1-53.54,0a2.13,2.13,0,0,1-.95-1.44A196.09,196.09,0,0,1,47.5,74.22,196.09,196.09,0,0,1,75.22,76.13Z"/><path class="cls-13" d="M18.82,76.13h1a2.13,2.13,0,0,0,.95,1.44q26.77,1,53.54,0a2.13,2.13,0,0,0,1-1.44h1V79H18.82Z"/><path class="cls-14" d="M18.82,79H76.18a6.21,6.21,0,0,1-1,4.3q-27.72,1-55.44,0A6.21,6.21,0,0,1,18.82,79Z"/></svg>